<mxfile host="app.diagrams.net" modified="2023-11-22T16:55:26.146Z" agent="Mozilla/5.0 (Windows NT 10.0; Win64; x64) AppleWebKit/537.36 (KHTML, like Gecko) Chrome/119.0.0.0 Safari/537.36" etag="-Wk26VOnzFM6fOrpYVjF" version="22.1.3" type="github">
  <diagram name="Página-1" id="fvwq_di86IDgTr8rhBjG">
    <mxGraphModel dx="1434" dy="1951" grid="1" gridSize="10" guides="1" tooltips="1" connect="1" arrows="1" fold="1" page="1" pageScale="1" pageWidth="827" pageHeight="1169" math="0" shadow="0">
      <root>
        <mxCell id="0" />
        <mxCell id="1" parent="0" />
        <mxCell id="6ma5iUzLoH46dt3fDdbS-1" value="Tipo Servico" style="rounded=0;whiteSpace=wrap;html=1;" vertex="1" parent="1">
          <mxGeometry x="120" y="150" width="120" height="60" as="geometry" />
        </mxCell>
        <mxCell id="6ma5iUzLoH46dt3fDdbS-3" value="Pacote" style="rounded=0;whiteSpace=wrap;html=1;" vertex="1" parent="1">
          <mxGeometry x="120" y="-60" width="120" height="60" as="geometry" />
        </mxCell>
        <mxCell id="6ma5iUzLoH46dt3fDdbS-4" value="Contrato" style="rounded=0;whiteSpace=wrap;html=1;" vertex="1" parent="1">
          <mxGeometry x="370" y="-60" width="120" height="60" as="geometry" />
        </mxCell>
        <mxCell id="6ma5iUzLoH46dt3fDdbS-5" value="Utilizador" style="rounded=0;whiteSpace=wrap;html=1;" vertex="1" parent="1">
          <mxGeometry x="660" y="-60" width="120" height="60" as="geometry" />
        </mxCell>
        <mxCell id="6ma5iUzLoH46dt3fDdbS-7" value="Central" style="rounded=0;whiteSpace=wrap;html=1;" vertex="1" parent="1">
          <mxGeometry x="120" y="355" width="120" height="60" as="geometry" />
        </mxCell>
        <mxCell id="6ma5iUzLoH46dt3fDdbS-9" value="Regiao" style="rounded=0;whiteSpace=wrap;html=1;" vertex="1" parent="1">
          <mxGeometry x="450" y="355" width="120" height="60" as="geometry" />
        </mxCell>
        <mxCell id="6ma5iUzLoH46dt3fDdbS-19" value="Realiza" style="rhombus;whiteSpace=wrap;html=1;" vertex="1" parent="1">
          <mxGeometry x="550" y="-60" width="60" height="60" as="geometry" />
        </mxCell>
        <mxCell id="6ma5iUzLoH46dt3fDdbS-20" value="Tem" style="rhombus;whiteSpace=wrap;html=1;" vertex="1" parent="1">
          <mxGeometry x="280" y="-60" width="60" height="60" as="geometry" />
        </mxCell>
        <mxCell id="6ma5iUzLoH46dt3fDdbS-22" value="Tem" style="rhombus;whiteSpace=wrap;html=1;" vertex="1" parent="1">
          <mxGeometry x="150" y="255" width="60" height="60" as="geometry" />
        </mxCell>
        <mxCell id="6ma5iUzLoH46dt3fDdbS-24" value="Pertence" style="rhombus;whiteSpace=wrap;html=1;" vertex="1" parent="1">
          <mxGeometry x="320" y="355" width="60" height="60" as="geometry" />
        </mxCell>
        <mxCell id="6ma5iUzLoH46dt3fDdbS-25" value="" style="endArrow=none;html=1;rounded=0;exitX=0.5;exitY=0;exitDx=0;exitDy=0;entryX=0.5;entryY=1;entryDx=0;entryDy=0;" edge="1" parent="1" source="6ma5iUzLoH46dt3fDdbS-35" target="6ma5iUzLoH46dt3fDdbS-3">
          <mxGeometry width="50" height="50" relative="1" as="geometry">
            <mxPoint x="390" y="540" as="sourcePoint" />
            <mxPoint x="440" y="490" as="targetPoint" />
          </mxGeometry>
        </mxCell>
        <mxCell id="6ma5iUzLoH46dt3fDdbS-26" value="" style="endArrow=none;html=1;rounded=0;exitX=0.5;exitY=0;exitDx=0;exitDy=0;entryX=0.5;entryY=1;entryDx=0;entryDy=0;" edge="1" parent="1" source="6ma5iUzLoH46dt3fDdbS-1" target="6ma5iUzLoH46dt3fDdbS-35">
          <mxGeometry width="50" height="50" relative="1" as="geometry">
            <mxPoint x="390" y="540" as="sourcePoint" />
            <mxPoint x="230" y="130" as="targetPoint" />
          </mxGeometry>
        </mxCell>
        <mxCell id="6ma5iUzLoH46dt3fDdbS-29" value="" style="endArrow=none;html=1;rounded=0;exitX=0.5;exitY=0;exitDx=0;exitDy=0;entryX=0.5;entryY=1;entryDx=0;entryDy=0;" edge="1" parent="1" source="6ma5iUzLoH46dt3fDdbS-22" target="6ma5iUzLoH46dt3fDdbS-1">
          <mxGeometry width="50" height="50" relative="1" as="geometry">
            <mxPoint x="390" y="540" as="sourcePoint" />
            <mxPoint x="180" y="390" as="targetPoint" />
          </mxGeometry>
        </mxCell>
        <mxCell id="6ma5iUzLoH46dt3fDdbS-30" value="" style="endArrow=none;html=1;rounded=0;exitX=0.5;exitY=0;exitDx=0;exitDy=0;entryX=0.5;entryY=1;entryDx=0;entryDy=0;" edge="1" parent="1" source="6ma5iUzLoH46dt3fDdbS-7" target="6ma5iUzLoH46dt3fDdbS-22">
          <mxGeometry width="50" height="50" relative="1" as="geometry">
            <mxPoint x="390" y="365" as="sourcePoint" />
            <mxPoint x="440" y="315" as="targetPoint" />
          </mxGeometry>
        </mxCell>
        <mxCell id="6ma5iUzLoH46dt3fDdbS-33" value="" style="endArrow=none;html=1;rounded=0;exitX=1;exitY=0.5;exitDx=0;exitDy=0;entryX=0;entryY=0.5;entryDx=0;entryDy=0;" edge="1" parent="1" source="6ma5iUzLoH46dt3fDdbS-24" target="6ma5iUzLoH46dt3fDdbS-9">
          <mxGeometry width="50" height="50" relative="1" as="geometry">
            <mxPoint x="400" y="100" as="sourcePoint" />
            <mxPoint x="450" y="50" as="targetPoint" />
          </mxGeometry>
        </mxCell>
        <mxCell id="6ma5iUzLoH46dt3fDdbS-34" value="" style="endArrow=none;html=1;rounded=0;exitX=0;exitY=1;exitDx=0;exitDy=0;entryX=0;entryY=0.5;entryDx=0;entryDy=0;" edge="1" parent="1" source="6ma5iUzLoH46dt3fDdbS-54" target="6ma5iUzLoH46dt3fDdbS-24">
          <mxGeometry width="50" height="50" relative="1" as="geometry">
            <mxPoint x="250" y="385" as="sourcePoint" />
            <mxPoint x="450" y="50" as="targetPoint" />
          </mxGeometry>
        </mxCell>
        <mxCell id="6ma5iUzLoH46dt3fDdbS-35" value="Tem" style="rhombus;whiteSpace=wrap;html=1;" vertex="1" parent="1">
          <mxGeometry x="150" y="40" width="60" height="60" as="geometry" />
        </mxCell>
        <mxCell id="6ma5iUzLoH46dt3fDdbS-36" value="" style="endArrow=none;html=1;rounded=0;entryX=0;entryY=0.5;entryDx=0;entryDy=0;exitX=1;exitY=0.5;exitDx=0;exitDy=0;" edge="1" parent="1" source="6ma5iUzLoH46dt3fDdbS-4" target="6ma5iUzLoH46dt3fDdbS-19">
          <mxGeometry width="50" height="50" relative="1" as="geometry">
            <mxPoint x="390" y="240" as="sourcePoint" />
            <mxPoint x="440" y="190" as="targetPoint" />
          </mxGeometry>
        </mxCell>
        <mxCell id="6ma5iUzLoH46dt3fDdbS-39" value="" style="endArrow=none;html=1;rounded=0;exitX=1;exitY=0.5;exitDx=0;exitDy=0;entryX=0;entryY=0.5;entryDx=0;entryDy=0;" edge="1" parent="1" source="6ma5iUzLoH46dt3fDdbS-3" target="6ma5iUzLoH46dt3fDdbS-20">
          <mxGeometry width="50" height="50" relative="1" as="geometry">
            <mxPoint x="390" y="440" as="sourcePoint" />
            <mxPoint x="440" y="390" as="targetPoint" />
          </mxGeometry>
        </mxCell>
        <mxCell id="6ma5iUzLoH46dt3fDdbS-40" value="" style="endArrow=none;html=1;rounded=0;entryX=0;entryY=0.5;entryDx=0;entryDy=0;exitX=1;exitY=0.5;exitDx=0;exitDy=0;" edge="1" parent="1" source="6ma5iUzLoH46dt3fDdbS-20" target="6ma5iUzLoH46dt3fDdbS-4">
          <mxGeometry width="50" height="50" relative="1" as="geometry">
            <mxPoint x="390" y="440" as="sourcePoint" />
            <mxPoint x="440" y="390" as="targetPoint" />
          </mxGeometry>
        </mxCell>
        <mxCell id="6ma5iUzLoH46dt3fDdbS-41" value="" style="endArrow=none;html=1;rounded=0;entryX=0;entryY=0.5;entryDx=0;entryDy=0;exitX=1;exitY=0.5;exitDx=0;exitDy=0;" edge="1" parent="1" source="6ma5iUzLoH46dt3fDdbS-19" target="6ma5iUzLoH46dt3fDdbS-5">
          <mxGeometry width="50" height="50" relative="1" as="geometry">
            <mxPoint x="390" y="440" as="sourcePoint" />
            <mxPoint x="440" y="390" as="targetPoint" />
          </mxGeometry>
        </mxCell>
        <mxCell id="6ma5iUzLoH46dt3fDdbS-42" value="ID_Pacote&lt;br&gt;" style="text;html=1;strokeColor=none;fillColor=none;align=center;verticalAlign=middle;whiteSpace=wrap;rounded=0;" vertex="1" parent="1">
          <mxGeometry y="-62.5" width="120" height="65" as="geometry" />
        </mxCell>
        <mxCell id="6ma5iUzLoH46dt3fDdbS-44" value="ID_TipoServico&lt;br&gt;Equipamento&lt;br&gt;Função&lt;br&gt;Preço" style="text;html=1;strokeColor=none;fillColor=none;align=center;verticalAlign=middle;whiteSpace=wrap;rounded=0;" vertex="1" parent="1">
          <mxGeometry y="147.5" width="120" height="65" as="geometry" />
        </mxCell>
        <mxCell id="6ma5iUzLoH46dt3fDdbS-46" value="ID_Central&lt;br&gt;Localidade" style="text;html=1;strokeColor=none;fillColor=none;align=center;verticalAlign=middle;whiteSpace=wrap;rounded=0;" vertex="1" parent="1">
          <mxGeometry x="10" y="347.5" width="110" height="75" as="geometry" />
        </mxCell>
        <mxCell id="6ma5iUzLoH46dt3fDdbS-48" value="ID_Regiao" style="text;html=1;strokeColor=none;fillColor=none;align=center;verticalAlign=middle;whiteSpace=wrap;rounded=0;" vertex="1" parent="1">
          <mxGeometry x="480" y="420" width="60" height="30" as="geometry" />
        </mxCell>
        <mxCell id="6ma5iUzLoH46dt3fDdbS-49" value="ID Utilizador&lt;br&gt;Nome&lt;br&gt;Morada" style="text;html=1;strokeColor=none;fillColor=none;align=center;verticalAlign=middle;whiteSpace=wrap;rounded=0;" vertex="1" parent="1">
          <mxGeometry x="665" y="-122.5" width="110" height="70" as="geometry" />
        </mxCell>
        <mxCell id="6ma5iUzLoH46dt3fDdbS-50" value="ID Contrato&lt;br&gt;Duração&lt;br&gt;Fatura&lt;br&gt;Data" style="text;html=1;strokeColor=none;fillColor=none;align=center;verticalAlign=middle;whiteSpace=wrap;rounded=0;" vertex="1" parent="1">
          <mxGeometry x="380" y="-122.5" width="100" height="60" as="geometry" />
        </mxCell>
        <mxCell id="6ma5iUzLoH46dt3fDdbS-51" value="Text" style="text;html=1;strokeColor=none;fillColor=none;align=center;verticalAlign=middle;whiteSpace=wrap;rounded=0;" vertex="1" parent="1">
          <mxGeometry x="130" y="325" width="60" height="30" as="geometry" />
        </mxCell>
        <mxCell id="6ma5iUzLoH46dt3fDdbS-53" value="N" style="text;html=1;strokeColor=none;fillColor=none;align=center;verticalAlign=middle;whiteSpace=wrap;rounded=0;" vertex="1" parent="1">
          <mxGeometry x="350" y="255" width="60" height="30" as="geometry" />
        </mxCell>
        <mxCell id="6ma5iUzLoH46dt3fDdbS-54" value="N" style="text;html=1;strokeColor=none;fillColor=none;align=center;verticalAlign=middle;whiteSpace=wrap;rounded=0;" vertex="1" parent="1">
          <mxGeometry x="240" y="355" width="60" height="30" as="geometry" />
        </mxCell>
        <mxCell id="6ma5iUzLoH46dt3fDdbS-55" value="1" style="text;html=1;strokeColor=none;fillColor=none;align=center;verticalAlign=middle;whiteSpace=wrap;rounded=0;" vertex="1" parent="1">
          <mxGeometry x="390" y="355" width="60" height="30" as="geometry" />
        </mxCell>
        <mxCell id="6ma5iUzLoH46dt3fDdbS-56" value="Text" style="text;html=1;strokeColor=none;fillColor=none;align=center;verticalAlign=middle;whiteSpace=wrap;rounded=0;" vertex="1" parent="1">
          <mxGeometry x="130" y="210" width="60" height="30" as="geometry" />
        </mxCell>
      </root>
    </mxGraphModel>
  </diagram>
</mxfile>
